# xmcd CD database file
#
# Track frame offsets:
#	150
#	17103
#	34754
#	53827
#	71875
#	86787
#	106089
#	126188
#	150919
#	171759
#	190029
#	207332
#	231005
#	250301
#	265567
#
# Disc length: 3832 seconds
#
# Revision: 0
# Processed by: cddbd v1.5PL3 Copyright (c) Steve Scherf et al.
# Submitted via: CDex 1.40Release
#
DISCID=c20ef60f
DTITLE=-- - スーチーナイトメア＋ゲー天
DYEAR=1998
DGENRE=Anime
TTITLE0=星空にWAKE UP!〜眠っちゃダメよ
TTITLE1=アレと、コレと、ソレと、デーと？
TTITLE2=ミスタータイアード！
TTITLE3=USAGI to STUDY
TTITLE4=肉球みゃーみゃー
TTITLE5=なんて言うんだっけ〜こういうときに
TTITLE6=ジャンジャンジャン〜夢で逢いましょ
TTITLE7=To Your Dream
TTITLE8=Memorial Day
TTITLE9=天使の羽根で
TTITLE10=e-thai-hou-die!!
TTITLE11=LOVELY STAR
TTITLE12=カラ元気じゃないよ
TTITLE13=戦え！わしだけのムテキンダーＺ
TTITLE14=ＤＪ戦隊ゲーテンジャー
EXTD=YEAR: 1998
EXTT0=
EXTT1=
EXTT2=
EXTT3=
EXTT4=
EXTT5=
EXTT6=
EXTT7=
EXTT8=
EXTT9=
EXTT10=
EXTT11=
EXTT12=
EXTT13=
EXTT14=
PLAYORDER=
